{
.appVersion = "3343";
.formatVersion = 3;
DisplayStrings = (
ABCDEFGHIJKLMNOPQRSTUVWXYZ,
" "
);
date = "2022-03-08 02:56:43 +0000";
familyName = "TMT Urging Osmosis B";
fontMaster = (
{
customParameters = (
{
name = typoAscender;
value = 912;
},
{
name = typoDescender;
value = -332;
},
{
name = typoLineGap;
value = 0;
},
{
name = winAscent;
value = 862;
},
{
name = winDescent;
value = 332;
},
{
name = hheaAscender;
value = 912;
},
{
name = hheaDescender;
value = -332;
},
{
name = strikeoutPosition;
value = 258;
},
{
name = strikeoutSize;
value = 49;
}
);
id = m01;
metricValues = (
{
pos = 912;
},
{
pos = 688;
},
{
pos = 700;
},
{
},
{
pos = -332;
},
{
}
);
name = Regular;
}
);
glyphs = (
{
glyphname = A;
kernLeft = A;
lastChange = "2022-12-26 01:30:44 +0000";
layers = (
{
layerId = m01;
shapes = (
{
closed = 1;
nodes = (
(47,-21,o),
(97,-16,o),
(147,-8,cs),
(169,-4,o),
(191,-1,o),
(213,4,c),
(204,72,o),
(193,141,o),
(187,211,c),
(187,229,o),
(195,246,o),
(209,258,cs),
(243,286,o),
(288,281,o),
(328,277,cs),
(361,275,o),
(394,217,o),
(395,174,cs),
(396,151,o),
(391,128,o),
(412,109,cs),
(415,106,o),
(415,99,o),
(415,91,c),
(432,101,ls),
(443,108,o),
(451,120,o),
(452,133,c),
(451,191,o),
(450,248,o),
(444,306,cs),
(435,393,o),
(422,480,o),
(410,567,c),
(413,567,l),
(411,592,o),
(410,617,o),
(408,642,cs),
(408,651,o),
(405,659,o),
(398,665,cs),
(391,671,o),
(382,673,o),
(374,672,cs),
(353,670,o),
(332,666,o),
(311,660,cs),
(266,649,o),
(212,582,o),
(222,540,cs),
(233,492,o),
(213,454,o),
(198,413,cs),
(183,373,o),
(160,332,o),
(156,290,cs),
(147,194,o),
(109,122,o),
(24,73,cs),
(1,61,o),
(-17,39,o),
(-34,19,cs),
(-41,10,o),
(-40,-6,o),
(-43,-18,c),
(-30,-21,o),
(-16,-27,o),
(-3,-25,cs)
);
},
{
closed = 1;
nodes = (
(118,404,o),
(124,410,o),
(129,418,cs),
(130,420,o),
(123,428,o),
(116,438,c),
(109,430,o),
(103,421,o),
(98,411,c),
(98,408,o),
(107,402,o),
(112,398,c)
);
},
{
closed = 1;
nodes = (
(172,599,o),
(180,598,o),
(184,601,cs),
(193,610,o),
(201,619,o),
(208,628,c),
(206,632,o),
(204,635,o),
(202,638,c),
(191,632,o),
(180,624,o),
(170,616,cs),
(166,613,o),
(167,604,o),
(165,598,c)
);
},
{
closed = 1;
nodes = (
(298,448,o),
(276,470,o),
(274,497,cs),
(274,519,o),
(305,545,o),
(331,545,cs),
(343,546,o),
(354,541,o),
(363,533,cs),
(371,525,o),
(376,514,o),
(376,502,cs),
(376,488,o),
(371,474,o),
(362,464,cs),
(352,454,o),
(339,448,o),
(325,447,c)
);
}
);
width = 489;
}
);
note = A;
unicode = (65,97,192,193,194,195,196,197,224,225,226,227,228,229);
},
{
glyphname = B;
lastChange = "2022-12-26 01:30:45 +0000";
layers = (
{
layerId = m01;
shapes = (
{
closed = 1;
nodes = (
(227,22,o),
(286,67,o),
(335,131,cs),
(357,160,o),
(366,198,o),
(387,227,cs),
(402,248,o),
(399,264,o),
(392,284,cs),
(376,329,o),
(361,373,o),
(349,418,cs),
(330,488,o),
(314,559,o),
(295,628,cs),
(285,666,o),
(277,670,o),
(233,667,c),
(197,672,o),
(162,656,o),
(142,625,cs),
(124,596,o),
(72,586,o),
(89,536,cs),
(91,531,o),
(84,522,o),
(81,515,cs),
(69,482,o),
(52,449,o),
(46,415,cs),
(31,315,o),
(19,214,o),
(7,113,cs),
(6,102,o),
(9,91,o),
(14,82,c),
(44,39,o),
(79,15,o),
(138,18,cs)
);
},
{
closed = 1;
nodes = (
(213,123,ls),
(179,124,o),
(145,125,o),
(111,127,cs),
(103,127,o),
(95,128,o),
(87,130,c),
(84,132,o),
(81,134,o),
(80,137,cs),
(75,155,o),
(73,174,o),
(76,193,cs),
(77,214,o),
(77,235,o),
(76,256,c),
(79,297,ls),
(79,299,o),
(80,301,o),
(82,303,c),
(83,305,o),
(86,305,o),
(88,305,cs),
(95,306,o),
(103,306,o),
(110,306,c),
(110,305,l),
(167,305,ls),
(171,305,o),
(176,304,o),
(180,303,c),
(217,285,o),
(254,268,o),
(290,250,c),
(294,247,o),
(297,245,o),
(300,241,c),
(305,237,o),
(309,231,o),
(314,227,cs),
(323,220,o),
(321,210,o),
(322,201,cs),
(325,181,o),
(327,162,o),
(330,143,c),
(330,139,o),
(330,135,o),
(329,130,cs),
(327,120,o),
(323,119,o),
(313,120,cs)
);
},
{
closed = 1;
nodes = (
(93,374,o),
(88,381,o),
(88,393,cs),
(88,396,o),
(89,398,o),
(91,400,cs),
(93,402,o),
(96,402,o),
(98,402,cs),
(105,402,o),
(112,394,o),
(111,386,c),
(112,383,o),
(111,380,o),
(109,378,cs),
(107,375,o),
(104,374,o),
(100,374,cs)
);
},
{
closed = 1;
nodes = (
(203,344,o),
(195,345,o),
(188,348,c),
(181,349,o),
(174,351,o),
(167,353,cs),
(157,357,o),
(147,362,o),
(137,367,cs),
(125,374,o),
(122,387,o),
(116,398,c),
(115,401,o),
(115,403,o),
(113,405,cs),
(98,423,o),
(106,441,o),
(117,457,cs),
(122,465,o),
(128,473,o),
(135,480,c),
(133,483,o),
(131,486,o),
(130,489,c),
(130,493,o),
(130,497,o),
(132,500,c),
(142,497,l),
(143,497,o),
(143,495,o),
(144,494,cs),
(148,488,o),
(152,486,o),
(159,491,cs),
(167,497,o),
(177,497,o),
(185,491,cs),
(187,490,o),
(188,488,o),
(188,486,c),
(187,485,o),
(185,484,o),
(182,484,c),
(176,482,o),
(170,481,o),
(164,480,c),
(164,477,l),
(166,477,o),
(169,476,o),
(172,476,cs),
(184,475,o),
(197,474,o),
(210,474,cs),
(212,474,o),
(215,476,o),
(217,477,c),
(213,486,l),
(217,487,o),
(222,495,o),
(228,486,c),
(230,484,o),
(236,484,o),
(240,485,cs),
(249,487,o),
(258,490,o),
(267,492,c),
(269,492,o),
(272,489,o),
(275,488,c),
(272,486,o),
(269,484,o),
(266,483,c),
(235,480,l),
(234,479,o),
(233,478,o),
(233,478,c),
(274,472,l),
(278,470,o),
(282,467,o),
(284,463,c),
(294,449,o),
(295,431,o),
(297,415,cs),
(298,409,o),
(300,404,o),
(304,401,cs),
(308,399,o),
(308,391,o),
(309,385,cs),
(310,380,o),
(314,375,o),
(306,370,c),
(303,369,o),
(303,362,o),
(303,357,cs),
(302,349,o),
(298,346,o),
(290,346,cs),
(263,345,o),
(237,343,o),
(210,343,c)
);
}
);
width = 415;
}
);
note = B;
unicode = (66,98);
},
{
glyphname = C;
lastChange = "2022-12-26 01:30:48 +0000";
layers = (
{
layerId = m01;
shapes = (
{
closed = 1;
nodes = (
(374,61,l),
(417,42,l),
(424,31,l),
(431,42,o),
(442,52,o),
(445,65,cs),
(453,97,o),
(473,99,o),
(494,98,c),
(501,115,o),
(506,134,o),
(509,152,cs),
(512,172,o),
(514,193,o),
(533,207,c),
(534,200,o),
(535,195,o),
(535,190,c),
(542,188,l),
(546,202,o),
(550,215,o),
(555,228,c),
(550,230,l),
(538,218,l),
(538,224,o),
(538,226,o),
(539,228,c),
(547,261,o),
(532,280,o),
(498,283,cs),
(471,285,o),
(450,269,o),
(428,257,cs),
(370,222,o),
(304,202,o),
(236,199,cs),
(162,197,o),
(135,272,o),
(160,318,cs),
(187,367,o),
(229,398,o),
(285,403,cs),
(330,407,o),
(375,406,o),
(419,408,cs),
(444,408,o),
(444,409,o),
(449,434,cs),
(450,438,o),
(451,442,o),
(453,446,c),
(463,460,o),
(473,474,o),
(482,489,cs),
(486,496,o),
(488,503,o),
(487,510,cs),
(484,520,o),
(475,529,o),
(472,539,cs),
(468,556,o),
(464,574,o),
(461,591,cs),
(455,627,o),
(448,633,o),
(412,633,cs),
(352,633,o),
(292,634,o),
(232,634,cs),
(186,634,l),
(186,620,o),
(186,608,o),
(185,597,cs),
(182,548,o),
(164,507,o),
(122,477,cs),
(92,457,o),
(69,429,o),
(57,395,cs),
(56,391,o),
(54,386,o),
(51,383,c),
(46,384,l),
(46,359,o),
(46,242,o),
(47,100,c),
(71,99,o),
(96,98,o),
(121,98,cs),
(148,98,o),
(165,89,o),
(176,66,cs),
(193,31,o),
(220,26,o),
(255,35,cs),
(270,39,o),
(287,37,o),
(300,29,cs),
(329,11,o),
(355,7,o),
(386,21,c)
);
}
);
width = 572;
}
);
note = C;
unicode = (67,99,199,231);
},
{
glyphname = D;
kernRight = D;
lastChange = "2022-12-26 01:30:49 +0000";
layers = (
{
layerId = m01;
shapes = (
{
closed = 1;
nodes = (
(46,-316,o),
(65,-295,o),
(83,-275,c),
(89,-266,o),
(90,-256,o),
(87,-246,cs),
(75,-215,o),
(91,-177,o),
(124,-168,cs),
(156,-160,o),
(183,-139,o),
(199,-111,cs),
(214,-88,o),
(232,-67,o),
(247,-44,c),
(256,-34,o),
(263,-22,o),
(267,-10,cs),
(283,50,o),
(321,95,o),
(362,138,cs),
(391,168,o),
(412,204,o),
(414,248,cs),
(415,265,o),
(419,282,o),
(420,299,cs),
(425,341,o),
(430,384,o),
(433,427,cs),
(433,435,o),
(429,443,o),
(422,449,c),
(423,449,l),
(377,487,o),
(326,517,o),
(270,538,cs),
(205,565,o),
(152,606,o),
(127,678,c),
(119,695,o),
(104,707,o),
(85,711,c),
(61,713,o),
(47,675,o),
(60,653,cs),
(78,624,o),
(76,596,o),
(58,567,cs),
(53,558,o),
(48,547,o),
(45,536,c),
(68,529,o),
(91,520,o),
(113,509,cs),
(144,494,o),
(168,475,o),
(194,457,cs),
(212,445,o),
(228,432,o),
(245,420,cs),
(275,401,o),
(306,382,o),
(333,361,cs),
(347,351,o),
(356,340,o),
(347,326,cs),
(339,312,o),
(335,296,o),
(325,282,cs),
(318,271,o),
(307,263,o),
(295,260,cs),
(257,250,o),
(217,244,o),
(178,237,cs),
(173,236,o),
(168,233,o),
(165,229,cs),
(160,220,o),
(151,221,o),
(139,225,cs),
(135,227,o),
(131,229,o),
(127,230,c),
(103,230,o),
(78,228,o),
(54,230,cs),
(34,231,o),
(20,230,o),
(14,222,c),
(10,175,o),
(6,127,o),
(3,80,cs),
(3,74,o),
(4,68,o),
(6,62,c),
(12,75,o),
(15,83,o),
(20,91,cs),
(25,98,o),
(30,106,o),
(34,114,c),
(44,150,o),
(54,155,o),
(92,140,c),
(90,138,o),
(89,135,o),
(88,135,cs),
(58,140,o),
(58,116,o),
(55,98,cs),
(54,93,o),
(61,87,o),
(64,82,c),
(69,85,o),
(75,88,o),
(77,92,cs),
(80,98,o),
(81,104,o),
(82,111,c),
(116,88,o),
(131,49,o),
(114,10,c),
(89,63,l),
(70,53,l),
(68,56,o),
(66,59,o),
(63,62,c),
(58,65,o),
(53,67,o),
(48,69,c),
(46,63,o),
(44,58,o),
(43,52,cs),
(43,47,o),
(44,43,o),
(47,39,cs),
(55,28,o),
(52,20,o),
(44,10,cs),
(22,-18,o),
(25,-59,o),
(-4,-83,cs),
(-6,-85,o),
(-6,-91,o),
(-7,-95,cs),
(-10,-104,o),
(-11,-114,o),
(-17,-120,cs),
(-49,-150,o),
(-56,-194,o),
(-76,-231,cs),
(-83,-242,o),
(-84,-263,o),
(-78,-272,cs),
(-64,-293,o),
(-47,-311,o),
(-26,-324,cs),
(-13,-332,o),
(11,-336,o),
(23,-329,cs)
);
}
);
width = 444;
}
);
note = D;
unicode = (68,100);
},
{
glyphname = E;
kernLeft = E;
lastChange = "2022-12-26 01:30:50 +0000";
layers = (
{
layerId = m01;
shapes = (
{
closed = 1;
nodes = (
(52,23,o),
(70,36,o),
(89,47,cs),
(140,78,o),
(198,95,o),
(257,98,cs),
(289,100,o),
(318,80,o),
(327,49,c),
(353,47,o),
(378,44,o),
(403,41,cs),
(407,41,o),
(410,40,o),
(413,38,cs),
(416,36,o),
(419,34,o),
(422,33,c),
(422,130,l),
(410,130,ls),
(364,132,o),
(317,133,o),
(271,135,cs),
(259,135,o),
(248,137,o),
(238,140,cs),
(233,142,o),
(230,145,o),
(228,150,cs),
(221,174,o),
(219,201,o),
(222,226,cs),
(226,255,o),
(222,284,o),
(223,313,cs),
(223,332,o),
(225,350,o),
(226,369,cs),
(226,372,o),
(228,375,o),
(230,378,c),
(233,380,o),
(236,381,o),
(239,381,cs),
(249,381,o),
(259,382,o),
(269,382,c),
(269,380,l),
(295,380,o),
(321,381,o),
(347,380,c),
(354,381,o),
(360,379,o),
(366,377,c),
(422,350,l),
(422,378,o),
(422,406,o),
(422,433,c),
(407,433,ls),
(397,434,o),
(387,436,o),
(377,439,cs),
(367,441,o),
(357,443,o),
(348,446,cs),
(334,452,o),
(320,459,o),
(306,466,cs),
(290,475,o),
(285,493,o),
(277,509,c),
(277,512,o),
(275,515,o),
(274,518,c),
(253,543,o),
(264,567,o),
(278,590,cs),
(286,601,o),
(294,611,o),
(303,622,c),
(300,625,o),
(298,629,o),
(296,634,c),
(296,639,o),
(297,644,o),
(299,649,c),
(303,647,o),
(308,646,o),
(313,645,c),
(316,641,ls),
(321,633,o),
(327,630,o),
(336,637,cs),
(347,645,o),
(362,645,o),
(373,637,c),
(374,634,o),
(376,632,o),
(377,629,c),
(369,626,ls),
(360,624,o),
(351,623,o),
(343,621,c),
(343,617,l),
(346,616,o),
(350,616,o),
(354,615,c),
(406,612,ls),
(410,612,o),
(413,615,o),
(417,617,c),
(411,630,l),
(414,630,o),
(418,634,o),
(422,635,c),
(422,719,l),
(422,719,o),
(417,699,o),
(405,698,cs),
(392,696,o),
(379,695,o),
(365,695,cs),
(345,694,o),
(324,695,o),
(304,692,cs),
(281,689,o),
(258,685,o),
(241,665,cs),
(231,654,o),
(218,645,o),
(203,641,cs),
(174,631,o),
(164,612,o),
(177,588,cs),
(191,564,o),
(182,539,o),
(159,525,cs),
(146,518,o),
(133,511,o),
(120,506,cs),
(107,501,o),
(97,489,o),
(95,475,cs),
(90,454,o),
(87,433,o),
(86,411,cs),
(84,359,o),
(76,308,o),
(62,257,cs),
(60,250,o),
(57,242,o),
(54,234,c),
(37,204,o),
(26,172,o),
(19,138,cs),
(16,121,o),
(15,103,o),
(-2,90,c),
(-3,96,o),
(-3,101,o),
(-4,106,c),
(-9,107,l),
(-21,72,l),
(-17,70,l),
(-6,81,l),
(-6,76,o),
(-7,74,o),
(-7,72,c),
(-14,44,o),
(-1,27,o),
(28,24,cs)
);
},
{
closed = 1;
nodes = (
(339,-33,o),
(351,-21,o),
(352,-7,cs),
(353,6,o),
(344,18,o),
(331,21,c),
(330,11,o),
(327,2,o),
(323,-7,cs),
(319,-14,o),
(314,-21,o),
(309,-28,c),
(314,-31,o),
(319,-32,o),
(324,-33,c)
);
}
);
width = 467;
}
);
note = E;
unicode = (69,101,200,201,202,203,232,233,234,235);
},
{
glyphname = F;
lastChange = "2022-12-26 01:30:52 +0000";
layers = (
{
layerId = m01;
shapes = (
{
closed = 1;
nodes = (
(189,-9,l),
(222,-8,l),
(218,53,o),
(216,114,o),
(214,175,cs),
(214,178,o),
(214,181,o),
(215,184,c),
(194,198,o),
(176,216,o),
(163,237,c),
(164,236,o),
(166,236,o),
(168,236,cs),
(197,236,o),
(227,237,o),
(256,240,cs),
(260,240,o),
(264,241,o),
(267,241,cs),
(269,241,o),
(270,241,o),
(272,242,c),
(312,246,o),
(351,252,o),
(391,257,c),
(391,256,l),
(404,257,o),
(417,257,o),
(430,258,cs),
(434,258,o),
(438,260,o),
(441,264,cs),
(444,267,o),
(446,271,o),
(445,276,cs),
(444,287,o),
(442,298,o),
(439,308,cs),
(433,331,o),
(398,359,o),
(377,354,cs),
(352,348,o),
(333,359,o),
(312,367,cs),
(291,374,o),
(270,386,o),
(248,388,cs),
(236,389,o),
(223,392,o),
(211,395,c),
(211,396,l),
(205,404,o),
(202,415,o),
(202,425,c),
(205,440,o),
(201,445,o),
(187,448,cs),
(172,451,o),
(161,464,o),
(162,480,cs),
(163,490,o),
(163,501,o),
(164,511,cs),
(165,522,o),
(160,525,o),
(150,523,c),
(145,521,o),
(138,522,o),
(133,525,cs),
(128,528,o),
(124,532,o),
(123,538,c),
(116,560,o),
(118,568,o),
(131,576,c),
(133,578,o),
(134,582,o),
(135,584,cs),
(137,589,o),
(139,599,o),
(142,599,cs),
(148,598,o),
(154,596,o),
(160,593,cs),
(165,590,o),
(169,587,o),
(173,584,c),
(162,560,o),
(164,547,o),
(178,543,cs),
(193,540,o),
(194,529,o),
(194,517,cs),
(195,510,o),
(198,504,o),
(201,498,cs),
(206,488,o),
(211,479,o),
(216,470,cs),
(219,462,o),
(222,455,o),
(227,448,cs),
(247,424,l),
(251,414,o),
(260,408,o),
(271,409,c),
(284,408,o),
(297,409,o),
(309,411,cs),
(318,413,o),
(325,419,o),
(330,427,c),
(347,472,o),
(352,517,o),
(332,563,cs),
(312,608,o),
(292,652,o),
(282,700,cs),
(279,716,o),
(266,729,o),
(250,732,cs),
(233,737,o),
(217,744,o),
(202,754,cs),
(180,771,o),
(160,791,o),
(137,807,cs),
(125,815,o),
(120,818,o),
(109,809,cs),
(94,799,o),
(92,796,o),
(103,782,cs),
(130,745,o),
(125,693,o),
(92,669,cs),
(84,663,o),
(75,657,o),
(66,651,c),
(63,650,o),
(60,649,o),
(57,650,cs),
(44,652,o),
(39,647,o),
(41,635,cs),
(45,614,o),
(51,594,o),
(53,574,cs),
(56,547,o),
(57,520,o),
(56,492,cs),
(52,452,o),
(44,411,o),
(40,370,c),
(40,354,o),
(41,337,o),
(44,320,c),
(61,323,l),
(68,305,l),
(60,305,ls),
(55,305,o),
(50,304,o),
(45,303,c),
(49,300,o),
(53,298,o),
(57,296,c),
(69,293,o),
(73,288,o),
(71,275,c),
(71,265,o),
(75,254,o),
(80,245,cs),
(88,230,o),
(98,215,o),
(107,201,c),
(109,196,o),
(113,192,o),
(117,189,cs),
(135,179,o),
(144,159,o),
(139,140,cs),
(130,102,o),
(123,65,o),
(140,27,c),
(142,24,o),
(144,20,o),
(145,16,cs),
(153,-7,o),
(153,-8,o),
(178,-9,cs)
);
},
{
closed = 1;
nodes = (
(348,274,o),
(339,279,o),
(333,287,cs),
(328,294,o),
(328,305,o),
(332,313,cs),
(337,321,o),
(345,327,o),
(355,327,cs),
(366,327,o),
(379,311,o),
(380,298,cs),
(380,292,o),
(378,286,o),
(373,282,c),
(369,277,o),
(363,275,o),
(357,275,cs)
);
},
{
closed = 1;
nodes = (
(100,585,o),
(88,590,o),
(86,598,cs),
(84,608,o),
(89,620,o),
(92,631,c),
(92,633,o),
(101,634,o),
(104,633,cs),
(117,627,o),
(127,617,o),
(131,603,cs),
(134,593,o),
(122,581,o),
(104,582,c)
);
}
);
width = 450;
}
);
note = F;
unicode = (70,102);
},
{
glyphname = G;
lastChange = "2022-12-26 01:30:53 +0000";
layers = (
{
layerId = m01;
shapes = (
{
closed = 1;
nodes = (
(-178,-305,o),
(-105,-298,o),
(-34,-286,cs),
(29,-276,o),
(95,-268,o),
(154,-245,cs),
(231,-214,o),
(304,-171,o),
(377,-130,c),
(392,-120,o),
(403,-103,o),
(404,-84,cs),
(403,-1,o),
(402,82,o),
(393,164,cs),
(380,289,o),
(361,414,o),
(345,540,c),
(349,540,l),
(346,576,o),
(345,612,o),
(342,648,cs),
(339,677,o),
(321,693,o),
(292,691,cs),
(262,687,o),
(232,682,o),
(203,674,cs),
(137,658,o),
(59,561,o),
(74,500,cs),
(91,431,o),
(61,377,o),
(39,319,cs),
(27,285,o),
(11,252,o),
(-2,218,c),
(30,205,o),
(60,189,o),
(92,175,c),
(96,174,o),
(101,178,o),
(106,178,cs),
(114,178,o),
(121,177,o),
(128,174,cs),
(132,172,o),
(132,163,o),
(136,153,c),
(150,148,o),
(169,141,o),
(189,133,cs),
(206,127,o),
(217,108,o),
(213,90,cs),
(205,51,o),
(218,17,o),
(232,-18,c),
(233,-17,l),
(232,-18,ls),
(218,-29,o),
(204,-41,o),
(189,-51,c),
(182,-54,o),
(174,-56,o),
(167,-57,c),
(166,-50,o),
(166,-43,o),
(164,-37,c),
(164,-31,o),
(162,-25,o),
(161,-20,c),
(154,-23,o),
(146,-25,o),
(143,-30,cs),
(140,-37,o),
(140,-44,o),
(141,-52,cs),
(143,-74,o),
(136,-85,o),
(114,-85,cs),
(47,-86,o),
(-19,-81,o),
(-76,-42,c),
(-109,-96,o),
(-156,-140,o),
(-211,-170,cs),
(-243,-188,o),
(-270,-220,o),
(-294,-249,cs),
(-305,-261,o),
(-303,-284,o),
(-307,-302,c),
(-288,-306,o),
(-268,-314,o),
(-249,-312,cs)
);
},
{
closed = 1;
nodes = (
(186,366,o),
(149,402,o),
(149,439,cs),
(150,470,o),
(194,508,o),
(231,509,cs),
(248,509,o),
(264,503,o),
(276,491,cs),
(289,480,o),
(295,463,o),
(295,446,cs),
(296,426,o),
(289,406,o),
(275,392,cs),
(261,377,o),
(242,368,o),
(222,368,cs)
);
}
);
width = 446;
}
);
note = G;
unicode = (71,103);
},
{
glyphname = H;
lastChange = "2022-12-26 01:30:55 +0000";
layers = (
{
layerId = m01;
shapes = (
{
closed = 1;
nodes = (
(483,-41,o),
(520,-27,o),
(540,3,cs),
(579,59,o),
(617,115,o),
(655,172,cs),
(662,181,o),
(671,191,o),
(672,201,cs),
(677,240,o),
(692,276,o),
(701,313,cs),
(712,360,o),
(710,411,o),
(714,460,cs),
(716,492,o),
(716,523,o),
(718,555,c),
(727,555,l),
(732,540,o),
(737,525,o),
(744,506,c),
(760,542,o),
(780,574,o),
(743,601,c),
(731,570,l),
(724,571,l),
(719,596,o),
(704,609,o),
(682,616,c),
(677,619,o),
(673,624,o),
(673,629,cs),
(674,656,o),
(660,663,o),
(637,662,c),
(631,663,o),
(626,665,o),
(621,667,cs),
(556,690,o),
(491,699,o),
(426,672,cs),
(413,666,o),
(396,664,o),
(397,644,cs),
(397,625,o),
(388,602,o),
(418,595,c),
(426,592,o),
(434,587,o),
(441,581,c),
(433,576,l),
(421,548,l),
(447,555,l),
(456,537,o),
(454,515,o),
(442,498,cs),
(437,489,o),
(435,478,o),
(438,467,cs),
(444,444,o),
(440,426,o),
(417,415,c),
(417,414,o),
(416,414,o),
(416,414,c),
(409,440,o),
(390,451,o),
(358,447,cs),
(325,443,o),
(293,434,o),
(261,427,cs),
(236,421,o),
(211,416,o),
(187,410,c),
(187,523,l),
(190,523,l),
(190,546,o),
(190,570,o),
(191,593,cs),
(191,614,o),
(185,629,o),
(163,629,cs),
(137,630,o),
(110,628,o),
(84,624,cs),
(64,620,o),
(54,607,o),
(55,580,cs),
(56,504,o),
(54,428,o),
(34,353,cs),
(28,327,o),
(15,293,o),
(26,275,cs),
(43,248,o),
(50,220,o),
(61,192,cs),
(73,160,o),
(73,146,o),
(50,120,c),
(44,111,o),
(41,100,o),
(43,90,c),
(43,85,o),
(58,80,o),
(66,80,cs),
(117,76,o),
(149,108,o),
(181,139,cs),
(190,148,o),
(206,158,o),
(207,169,cs),
(209,203,o),
(210,239,o),
(187,269,cs),
(165,295,o),
(161,332,o),
(177,362,c),
(224,343,o),
(271,323,o),
(320,311,cs),
(357,301,o),
(380,297,o),
(394,302,c),
(391,241,ls),
(389,177,o),
(386,113,o),
(385,49,cs),
(385,15,o),
(417,-22,o),
(448,-31,cs)
);
}
);
width = 756;
}
);
note = H;
unicode = (72,104);
},
{
glyphname = I;
kernLeft = I;
lastChange = "2022-12-26 01:30:56 +0000";
layers = (
{
layerId = m01;
shapes = (
{
closed = 1;
nodes = (
(159,-76,o),
(167,-68,o),
(170,-62,cs),
(177,-46,o),
(186,-28,o),
(187,-10,cs),
(192,49,o),
(193,109,o),
(196,169,c),
(194,169,l),
(194,182,o),
(195,194,o),
(194,207,cs),
(189,296,o),
(181,385,o),
(170,474,cs),
(169,481,o),
(164,488,o),
(158,492,c),
(151,495,o),
(143,496,o),
(136,492,c),
(123,487,o),
(110,482,o),
(97,478,cs),
(86,474,o),
(79,464,o),
(80,453,cs),
(95,290,ls),
(103,195,o),
(113,100,o),
(124,5,cs),
(126,-17,o),
(131,-39,o),
(138,-61,cs),
(141,-68,o),
(147,-73,o),
(155,-75,cs)
);
},
{
closed = 1;
nodes = (
(90,528,ls),
(124,534,o),
(158,565,o),
(174,596,c),
(169,625,o),
(163,653,o),
(157,681,c),
(136,704,o),
(104,717,o),
(74,712,cs),
(58,708,o),
(46,694,o),
(45,678,cs),
(42,643,o),
(40,607,o),
(40,572,cs),
(40,559,o),
(45,547,o),
(55,539,cs),
(64,530,o),
(77,527,o),
(89,528,cs)
);
}
);
width = 242;
}
);
note = I;
unicode = (73,105,204,205,206,207,236,237,238,239);
},
{
glyphname = J;
kernRight = D;
lastChange = "2022-12-26 01:30:57 +0000";
layers = (
{
layerId = m01;
shapes = (
{
closed = 1;
nodes = (
(35,-316,o),
(54,-295,o),
(72,-275,c),
(78,-266,o),
(79,-256,o),
(76,-246,cs),
(64,-215,o),
(80,-177,o),
(113,-168,cs),
(145,-159,o),
(172,-139,o),
(189,-111,cs),
(203,-88,o),
(221,-67,o),
(236,-44,c),
(245,-34,o),
(252,-22,o),
(256,-10,cs),
(272,50,o),
(310,95,o),
(351,138,cs),
(380,168,o),
(401,204,o),
(403,248,cs),
(404,265,o),
(408,282,o),
(409,299,cs),
(414,341,o),
(419,384,o),
(422,427,cs),
(422,435,o),
(418,443,o),
(411,449,cs),
(366,487,o),
(315,517,o),
(259,538,cs),
(241,545,o),
(227,564,o),
(209,564,cs),
(191,564,o),
(154,547,o),
(146,525,cs),
(137,503,o),
(186,477,o),
(208,449,cs),
(244,406,o),
(231,335,o),
(179,297,cs),
(154,278,o),
(127,260,o),
(101,242,c),
(102,241,l),
(73,221,o),
(46,198,o),
(16,181,cs),
(10,177,o),
(5,175,o),
(-1,173,c),
(-3,142,o),
(-6,111,o),
(-8,80,cs),
(-8,74,o),
(-7,68,o),
(-5,62,c),
(1,75,o),
(4,83,o),
(9,91,cs),
(14,98,o),
(19,106,o),
(23,114,c),
(33,150,o),
(43,155,o),
(81,140,c),
(79,138,o),
(78,135,o),
(77,135,cs),
(47,140,o),
(47,116,o),
(44,98,cs),
(43,93,o),
(50,87,o),
(53,82,c),
(58,85,o),
(64,88,o),
(66,92,cs),
(69,98,o),
(70,104,o),
(71,111,c),
(105,88,o),
(120,49,o),
(103,10,c),
(95,28,o),
(86,45,o),
(78,63,c),
(59,53,l),
(56,57,o),
(55,60,o),
(52,62,cs),
(47,65,o),
(42,67,o),
(37,69,c),
(35,63,o),
(33,58,o),
(32,52,cs),
(32,47,o),
(33,43,o),
(36,39,cs),
(44,28,o),
(41,20,o),
(33,10,cs),
(11,-18,o),
(15,-59,o),
(-15,-83,cs),
(-17,-85,o),
(-16,-91,o),
(-18,-95,cs),
(-21,-104,o),
(-22,-114,o),
(-28,-120,cs),
(-60,-150,o),
(-67,-194,o),
(-87,-231,cs),
(-94,-242,o),
(-95,-263,o),
(-89,-272,cs),
(-75,-293,o),
(-58,-311,o),
(-37,-324,cs),
(-24,-332,o),
(0,-336,o),
(12,-329,cs)
);
},
{
closed = 1;
nodes = (
(131,568,o),
(139,568,o),
(145,572,cs),
(151,576,o),
(155,583,o),
(154,591,c),
(155,602,o),
(155,613,o),
(155,624,c),
(154,624,l),
(154,655,ls),
(154,664,o),
(151,673,o),
(144,680,cs),
(138,687,o),
(129,691,o),
(120,691,cs),
(92,690,o),
(67,678,o),
(49,657,cs),
(42,648,o),
(38,619,o),
(46,610,cs),
(54,601,o),
(63,595,o),
(73,590,cs),
(89,582,o),
(107,576,o),
(124,571,cs)
);
}
);
width = 433;
}
);
note = J;
unicode = (74,106);
},
{
glyphname = K;
lastChange = "2022-12-26 01:31:03 +0000";
layers = (
{
layerId = m01;
shapes = (
{
closed = 1;
nodes = (
(215,20,o),
(230,25,o),
(245,25,cs),
(281,26,o),
(307,73,o),
(301,130,cs),
(299,144,o),
(298,158,o),
(299,173,cs),
(301,184,o),
(306,201,o),
(312,204,c),
(322,207,o),
(333,204,o),
(339,196,cs),
(355,174,o),
(369,152,o),
(382,129,cs),
(403,95,o),
(440,87,o),
(458,144,cs),
(473,190,o),
(461,240,o),
(434,248,cs),
(419,251,o),
(408,264,o),
(409,279,c),
(408,304,o),
(421,304,o),
(432,308,cs),
(448,315,o),
(461,329,o),
(461,357,cs),
(460,388,o),
(458,418,o),
(454,449,cs),
(451,471,o),
(445,495,o),
(428,498,cs),
(401,504,o),
(383,483,o),
(377,441,cs),
(373,403,o),
(368,365,o),
(351,335,cs),
(343,321,o),
(332,308,o),
(327,292,cs),
(314,255,o),
(298,244,o),
(274,263,cs),
(272,265,o),
(268,264,o),
(265,264,cs),
(244,262,o),
(223,260,o),
(203,259,cs),
(199,259,l),
(170,275,o),
(140,290,o),
(122,321,cs),
(110,342,o),
(109,370,o),
(126,387,cs),
(135,397,o),
(145,405,o),
(155,414,cs),
(160,419,o),
(163,424,o),
(157,432,cs),
(153,438,o),
(151,445,o),
(151,452,c),
(153,463,o),
(150,466,o),
(140,468,cs),
(130,470,o),
(122,480,o),
(123,491,cs),
(123,498,o),
(124,506,o),
(124,513,cs),
(125,521,o),
(122,523,o),
(114,521,cs),
(110,520,o),
(106,520,o),
(102,522,cs),
(99,524,o),
(96,528,o),
(95,532,cs),
(90,547,o),
(91,553,o),
(101,559,c),
(102,560,o),
(103,563,o),
(103,565,c),
(105,568,o),
(107,575,o),
(108,575,cs),
(112,575,o),
(116,573,o),
(119,571,c),
(119,575,ls),
(118,600,o),
(161,641,o),
(186,645,cs),
(193,646,o),
(200,647,o),
(207,647,c),
(204,658,o),
(196,667,o),
(184,669,cs),
(173,672,o),
(161,677,o),
(151,684,cs),
(135,696,o),
(121,711,o),
(105,722,cs),
(97,727,o),
(93,729,o),
(85,723,cs),
(75,716,o),
(73,714,o),
(81,704,cs),
(100,678,o),
(97,641,o),
(73,624,cs),
(55,612,ls),
(53,611,o),
(51,610,o),
(48,611,cs),
(39,613,o),
(36,608,o),
(37,600,cs),
(40,586,o),
(44,572,o),
(46,557,cs),
(48,538,o),
(49,519,o),
(47,500,cs),
(45,471,o),
(39,442,o),
(37,414,cs),
(36,402,o),
(38,390,o),
(40,378,c),
(51,380,l),
(53,376,o),
(54,372,o),
(56,367,c),
(53,367,o),
(52,368,o),
(51,367,c),
(47,367,o),
(44,367,o),
(40,366,c),
(43,364,o),
(46,362,o),
(49,361,cs),
(57,359,o),
(60,356,o),
(59,347,cs),
(59,339,o),
(61,331,o),
(65,325,cs),
(71,314,o),
(77,304,o),
(84,294,c),
(85,291,o),
(88,288,o),
(91,285,c),
(104,279,o),
(110,264,o),
(106,251,cs),
(100,231,o),
(99,211,o),
(101,191,cs),
(101,166,ls),
(103,140,o),
(106,114,o),
(112,89,cs),
(119,63,o),
(130,40,o),
(152,42,cs),
(154,42,o),
(157,37,o),
(160,36,cs),
(173,30,o),
(187,25,o),
(201,22,cs)
);
},
{
closed = 1;
nodes = (
(79,565,o),
(70,569,o),
(69,574,cs),
(68,582,o),
(70,590,o),
(73,597,c),
(73,599,o),
(79,600,o),
(81,599,cs),
(91,595,o),
(98,587,o),
(101,578,cs),
(103,571,o),
(94,563,o),
(81,563,c)
);
}
);
width = 497;
}
);
note = K;
unicode = (75,107);
},
{
glyphname = L;
lastChange = "2022-12-26 01:31:04 +0000";
layers = (
{
layerId = m01;
shapes = (
{
closed = 1;
nodes = (
(76,-73,o),
(82,-68,o),
(86,-60,c),
(92,-39,o),
(97,-17,o),
(100,5,cs),
(110,100,o),
(120,195,o),
(129,290,cs),
(138,396,o),
(149,503,o),
(153,609,cs),
(155,673,o),
(145,736,o),
(140,800,cs),
(139,806,o),
(132,812,o),
(127,818,c),
(122,812,o),
(114,806,o),
(112,799,cs),
(99,740,o),
(85,680,o),
(75,620,cs),
(52,484,o),
(37,346,o),
(29,207,c),
(29,169,l),
(27,169,l),
(30,109,o),
(32,49,o),
(36,-10,cs),
(38,-28,o),
(46,-46,o),
(54,-62,c),
(56,-68,o),
(65,-76,o),
(68,-75,cs)
);
}
);
width = 178;
}
);
note = L;
unicode = (76,108);
},
{
glyphname = M;
lastChange = "2022-12-26 01:31:05 +0000";
layers = (
{
layerId = m01;
shapes = (
{
closed = 1;
nodes = (
(350,23,o),
(361,23,o),
(372,51,cs),
(395,108,o),
(418,165,o),
(439,225,cs),
(449,256,o),
(454,289,o),
(455,321,cs),
(455,331,ls),
(455,330,o),
(456,330,o),
(457,330,cs),
(523,313,o),
(555,227,o),
(579,123,cs),
(581,116,o),
(584,109,o),
(588,102,c),
(593,108,o),
(597,115,o),
(599,123,cs),
(612,192,o),
(613,263,o),
(603,332,cs),
(598,362,o),
(589,375,o),
(572,371,cs),
(555,367,o),
(539,369,o),
(523,367,cs),
(500,365,o),
(477,361,o),
(453,358,c),
(449,410,o),
(431,436,o),
(398,451,cs),
(386,457,o),
(374,470,o),
(362,483,cs),
(329,519,o),
(297,557,o),
(264,594,cs),
(249,611,o),
(240,605,o),
(231,574,cs),
(226,559,o),
(222,544,o),
(219,529,c),
(219,549,o),
(223,568,o),
(229,587,cs),
(234,607,o),
(234,632,o),
(237,657,c),
(229,657,o),
(227,658,o),
(226,656,cs),
(166,566,o),
(91,503,o),
(58,358,cs),
(53,339,o),
(47,320,o),
(40,301,cs),
(1,191,ls),
(-15,147,o),
(6,129,o),
(16,103,cs),
(26,77,o),
(38,85,o),
(48,102,cs),
(98,182,o),
(147,262,o),
(196,342,c),
(195,311,o),
(195,279,o),
(195,245,cs),
(192,202,o),
(197,144,o),
(220,95,cs),
(228,78,o),
(235,70,o),
(248,77,cs),
(279,94,o),
(308,73,o),
(332,44,cs)
);
},
{
closed = 1;
nodes = (
(161,427,o),
(141,444,o),
(140,468,cs),
(139,491,o),
(157,510,o),
(180,511,cs),
(198,511,o),
(219,486,o),
(220,465,cs),
(220,455,o),
(217,446,o),
(210,439,cs),
(203,432,o),
(194,428,o),
(184,428,cs)
);
}
);
width = 637;
}
);
note = M;
unicode = (77,109);
},
{
glyphname = N;
lastChange = "2022-12-26 01:31:07 +0000";
layers = (
{
layerId = m01;
shapes = (
{
closed = 1;
nodes = (
(299,90,l),
(290,104,l),
(293,103,o),
(295,103,o),
(297,102,cs),
(321,94,o),
(335,109,o),
(337,144,cs),
(338,173,o),
(327,194,o),
(318,217,cs),
(292,280,o),
(278,348,o),
(276,417,cs),
(275,493,o),
(329,522,o),
(362,495,cs),
(397,468,o),
(419,424,o),
(423,366,cs),
(426,319,o),
(425,273,o),
(426,226,cs),
(427,200,o),
(427,200,o),
(445,195,c),
(448,195,o),
(451,193,o),
(453,191,cs),
(464,181,o),
(474,170,o),
(485,161,cs),
(489,157,o),
(494,155,o),
(500,157,cs),
(507,160,o),
(513,168,o),
(521,171,cs),
(533,176,o),
(545,180,o),
(558,183,cs),
(583,189,o),
(588,196,o),
(588,234,cs),
(588,296,o),
(588,358,o),
(589,421,cs),
(589,469,l),
(562,469,l),
(527,473,o),
(497,491,o),
(476,535,cs),
(461,565,o),
(442,590,o),
(417,602,c),
(408,608,l),
(409,610,o),
(409,612,o),
(409,614,c),
(391,614,o),
(305,614,o),
(201,613,c),
(199,591,o),
(195,568,o),
(189,546,cs),
(186,537,o),
(179,529,o),
(170,525,c),
(159,522,o),
(147,521,o),
(135,522,cs),
(125,522,o),
(118,527,o),
(113,542,cs),
(109,554,o),
(100,562,o),
(95,574,cs),
(91,583,o),
(88,592,o),
(85,602,cs),
(84,606,o),
(82,609,o),
(81,613,c),
(36,613,l),
(36,596,o),
(44,578,o),
(59,573,cs),
(71,569,o),
(75,563,o),
(73,544,cs),
(72,530,o),
(75,517,o),
(81,505,cs),
(87,494,o),
(86,481,o),
(77,472,c),
(65,455,o),
(52,439,o),
(40,422,cs),
(18,390,o),
(19,337,o),
(35,299,cs),
(56,247,o),
(88,219,o),
(121,193,c),
(145,184,ls),
(152,182,o),
(158,178,o),
(164,174,cs),
(189,156,o),
(215,140,o),
(243,133,cs),
(257,130,o),
(272,128,o),
(282,108,c),
(270,106,l),
(269,99,l),
(297,86,l)
);
},
{
closed = 1;
nodes = (
(382,351,o),
(387,358,o),
(392,371,c),
(383,383,o),
(372,393,o),
(360,403,c),
(352,407,o),
(342,407,o),
(332,405,c),
(326,401,o),
(322,394,o),
(322,386,cs),
(321,373,o),
(347,355,o),
(364,353,cs)
);
}
);
width = 616;
}
);
note = N;
unicode = (78,110,209,241);
},
{
glyphname = O;
lastChange = "2022-12-26 01:31:08 +0000";
layers = (
{
layerId = m01;
shapes = (
{
closed = 1;
nodes = (
(332,124,o),
(353,124,o),
(375,152,cs),
(420,212,o),
(466,271,o),
(505,334,cs),
(524,363,o),
(535,398,o),
(536,433,cs),
(539,514,o),
(505,549,o),
(427,568,c),
(402,576,o),
(379,587,o),
(357,601,cs),
(293,639,o),
(229,678,o),
(166,717,cs),
(136,734,o),
(118,727,o),
(100,696,cs),
(45,595,o),
(27,486,o),
(32,354,c),
(25,298,o),
(42,242,o),
(79,199,cs),
(94,181,o),
(108,172,o),
(134,180,cs),
(194,197,o),
(250,176,o),
(298,145,cs)
);
},
{
closed = 1;
nodes = (
(217,301,o),
(206,299,o),
(193,308,cs),
(174,322,o),
(149,328,o),
(131,342,cs),
(89,374,o),
(60,412,o),
(58,470,cs),
(56,508,o),
(71,530,o),
(99,550,c),
(105,553,o),
(112,555,o),
(119,554,cs),
(184,546,o),
(250,539,o),
(315,529,cs),
(337,526,o),
(358,514,o),
(380,507,c),
(384,505,o),
(390,500,o),
(393,501,cs),
(426,513,o),
(432,479,o),
(451,467,cs),
(470,454,o),
(481,431,o),
(478,408,c),
(480,380,o),
(477,375,o),
(453,368,cs),
(408,356,o),
(362,346,o),
(317,333,cs),
(287,325,o),
(259,315,o),
(230,305,cs)
);
}
);
width = 537;
}
);
note = O;
unicode = (79,111,210,211,212,213,214,216,242,243,244,245,246,248);
},
{
glyphname = P;
lastChange = "2022-12-26 01:31:10 +0000";
layers = (
{
layerId = m01;
shapes = (
{
closed = 1;
nodes = (
(234,-259,o),
(239,-259,o),
(244,-259,cs),
(436,-256,ls),
(457,-256,o),
(478,-257,o),
(498,-256,c),
(516,-253,o),
(531,-239,o),
(533,-221,cs),
(535,-208,o),
(534,-194,o),
(532,-180,c),
(523,-149,o),
(514,-117,o),
(480,-102,cs),
(447,-88,o),
(413,-75,o),
(383,-57,cs),
(318,-20,o),
(248,8,o),
(207,78,cs),
(184,117,o),
(182,171,o),
(215,204,cs),
(233,222,o),
(251,239,o),
(270,256,c),
(276,260,o),
(280,268,o),
(280,276,c),
(292,272,o),
(304,269,o),
(316,265,cs),
(344,256,o),
(365,269,o),
(368,298,cs),
(368,307,l),
(382,306,o),
(395,307,o),
(408,310,cs),
(420,313,o),
(430,321,o),
(435,332,cs),
(458,392,o),
(465,454,o),
(438,516,cs),
(412,577,o),
(384,636,o),
(371,702,cs),
(366,724,o),
(351,739,o),
(327,745,cs),
(304,751,o),
(282,761,o),
(263,775,cs),
(232,797,o),
(205,825,o),
(174,847,cs),
(158,858,o),
(152,861,o),
(136,849,cs),
(116,835,o),
(113,832,o),
(128,812,cs),
(165,762,o),
(158,692,o),
(113,659,cs),
(102,651,o),
(90,643,o),
(78,635,c),
(74,634,o),
(70,633,o),
(66,634,cs),
(48,637,o),
(42,629,o),
(45,613,cs),
(49,585,o),
(58,558,o),
(60,531,cs),
(65,494,o),
(66,457,o),
(64,420,cs),
(59,365,o),
(48,310,o),
(43,255,cs),
(41,233,o),
(46,210,o),
(49,187,c),
(71,191,l),
(80,166,l),
(70,166,ls),
(63,166,o),
(57,165,o),
(50,164,c),
(55,160,o),
(60,156,o),
(66,154,cs),
(82,150,o),
(87,144,o),
(85,126,cs),
(84,113,o),
(91,97,o),
(97,85,cs),
(108,64,o),
(121,45,o),
(133,25,cs),
(137,19,o),
(141,13,o),
(147,8,c),
(171,-4,o),
(183,-32,o),
(177,-58,cs),
(164,-108,o),
(156,-159,o),
(179,-210,cs),
(185,-226,ls),
(195,-257,o),
(196,-258,o),
(229,-259,cs)
);
},
{
closed = 1;
nodes = (
(211,446,ls),
(212,461,o),
(206,464,o),
(192,462,cs),
(173,458,o),
(161,466,o),
(155,482,cs),
(145,511,o),
(148,523,o),
(166,534,cs),
(169,536,o),
(170,541,o),
(171,545,cs),
(174,552,o),
(177,564,o),
(180,564,cs),
(189,564,o),
(198,561,o),
(206,556,cs),
(223,545,l),
(209,512,o),
(211,494,o),
(230,489,cs),
(248,485,o),
(250,474,o),
(251,460,c),
(236,454,o),
(223,446,o),
(211,437,c)
);
},
{
closed = 1;
nodes = (
(124,546,o),
(108,553,o),
(105,563,cs),
(102,577,o),
(109,593,o),
(113,608,c),
(114,610,o),
(125,613,o),
(129,611,cs),
(147,603,o),
(160,588,o),
(166,570,cs),
(170,556,o),
(154,541,o),
(129,542,c)
);
},
{
closed = 1;
nodes = (
(94,790,o),
(97,793,o),
(100,796,c),
(84,820,l),
(80,816,o),
(76,811,o),
(73,807,c),
(78,800,o),
(84,794,o),
(91,788,c)
);
},
{
closed = 1;
nodes = (
(272,825,o),
(277,830,o),
(282,833,c),
(283,840,l),
(270,848,o),
(258,855,o),
(245,862,c),
(241,859,o),
(238,856,o),
(237,851,c),
(237,837,o),
(254,822,o),
(267,824,cs)
);
}
);
width = 458;
}
);
note = P;
unicode = (80,112);
},
{
glyphname = Q;
lastChange = "2022-12-26 01:31:12 +0000";
layers = (
{
layerId = m01;
shapes = (
{
closed = 1;
nodes = (
(190,49,o),
(226,63,o),
(261,73,cs),
(301,85,o),
(341,100,o),
(379,118,cs),
(402,128,o),
(424,143,o),
(428,168,c),
(397,177,o),
(367,188,o),
(337,201,cs),
(317,211,o),
(299,225,o),
(284,242,cs),
(268,260,o),
(274,320,o),
(290,339,cs),
(321,377,o),
(252,397,o),
(298,405,c),
(298,422,o),
(300,439,o),
(304,455,cs),
(307,468,o),
(304,483,o),
(304,497,cs),
(304,507,o),
(304,516,o),
(305,526,cs),
(308,555,o),
(312,584,o),
(313,614,cs),
(312,630,o),
(309,646,o),
(304,661,cs),
(302,667,o),
(295,672,o),
(289,680,c),
(287,672,o),
(285,670,o),
(285,668,c),
(294,627,o),
(279,610,o),
(238,611,cs),
(224,611,o),
(209,605,o),
(192,600,c),
(237,561,o),
(247,517,o),
(223,487,cs),
(205,464,o),
(170,461,o),
(141,482,cs),
(129,492,o),
(120,505,o),
(115,519,cs),
(103,549,o),
(123,570,o),
(140,591,c),
(101,615,l),
(102,614,l),
(95,616,o),
(89,619,o),
(83,622,c),
(73,603,o),
(59,586,o),
(42,572,cs),
(35,566,o),
(29,560,o),
(23,554,c),
(31,538,o),
(38,521,o),
(43,504,cs),
(53,474,o),
(56,442,o),
(52,410,c),
(63,416,o),
(77,408,o),
(83,396,cs),
(88,385,o),
(181,368,o),
(154,356,cs),
(149,354,o),
(178,342,o),
(179,336,cs),
(186,303,o),
(173,278,o),
(153,254,c),
(150,249,o),
(148,243,o),
(146,237,cs),
(144,229,o),
(141,221,o),
(137,214,c),
(104,177,o),
(102,136,o),
(120,94,cs),
(127,80,o),
(140,69,o),
(154,64,cs)
);
},
{
closed = 1;
nodes = (
(144,427,o),
(136,434,o),
(124,442,c),
(138,451,o),
(147,457,o),
(157,462,c),
(157,463,o),
(166,453,o),
(165,452,c),
(160,443,o),
(154,435,o),
(146,429,cs)
);
}
);
width = 441;
}
);
note = Q;
unicode = (81,113);
},
{
glyphname = R;
kernLeft = R;
lastChange = "2022-12-26 01:31:13 +0000";
layers = (
{
layerId = m01;
shapes = (
{
closed = 1;
nodes = (
(151,56,o),
(169,64,o),
(174,90,cs),
(182,131,o),
(191,171,o),
(196,212,cs),
(207,292,o),
(268,452,o),
(316,454,cs),
(353,456,o),
(386,486,o),
(367,531,cs),
(352,567,o),
(314,582,o),
(288,561,cs),
(276,552,o),
(197,535,o),
(183,546,cs),
(168,557,o),
(161,578,o),
(167,590,cs),
(176,608,o),
(178,627,o),
(162,640,cs),
(143,656,o),
(124,669,o),
(103,681,cs),
(88,689,o),
(69,695,o),
(53,681,cs),
(29,660,o),
(27,633,o),
(47,607,cs),
(66,583,o),
(84,560,o),
(88,529,c),
(89,527,o),
(86,420,o),
(87,408,cs),
(94,294,o),
(95,263,o),
(102,149,c),
(96,98,o),
(101,85,o),
(129,69,cs)
);
}
);
width = 356;
}
);
note = R;
unicode = (82,114);
},
{
glyphname = S;
lastChange = "2022-12-26 01:31:14 +0000";
layers = (
{
layerId = m01;
shapes = (
{
closed = 1;
nodes = (
(327,-29,o),
(379,7,o),
(382,36,cs),
(388,94,o),
(392,152,o),
(399,210,cs),
(406,275,o),
(375,318,o),
(322,350,cs),
(307,359,o),
(299,377,o),
(303,395,c),
(274,400,o),
(247,413,o),
(223,431,cs),
(221,432,o),
(218,433,o),
(218,435,c),
(209,460,o),
(190,481,o),
(185,504,cs),
(179,536,o),
(185,571,o),
(187,604,cs),
(187,615,o),
(194,619,o),
(204,622,cs),
(224,628,o),
(243,639,o),
(262,646,cs),
(269,649,o),
(278,650,o),
(285,648,c),
(315,635,o),
(344,621,o),
(374,608,c),
(377,606,o),
(382,610,o),
(386,610,cs),
(392,610,o),
(398,609,o),
(403,607,c),
(415,621,o),
(419,619,o),
(438,601,cs),
(450,590,o),
(458,594,o),
(460,607,cs),
(467,646,o),
(474,684,o),
(477,723,cs),
(479,749,o),
(448,781,o),
(421,783,cs),
(400,784,o),
(380,784,o),
(359,782,cs),
(283,778,o),
(207,793,o),
(133,771,cs),
(106,764,o),
(85,746,o),
(83,720,cs),
(82,695,o),
(82,669,o),
(80,644,cs),
(79,636,o),
(77,627,o),
(74,619,c),
(61,594,o),
(47,569,o),
(34,543,cs),
(32,538,o),
(30,533,o),
(29,527,cs),
(28,502,o),
(26,477,o),
(24,451,c),
(38,442,o),
(53,434,o),
(68,425,c),
(74,441,o),
(90,451,o),
(107,449,c),
(130,449,o),
(148,431,o),
(149,408,cs),
(149,400,o),
(147,393,o),
(143,386,c),
(171,377,o),
(183,362,o),
(182,330,cs),
(182,314,o),
(177,300,o),
(169,287,cs),
(152,259,o),
(132,234,o),
(112,208,cs),
(103,196,o),
(94,196,o),
(79,205,cs),
(71,210,o),
(63,215,o),
(54,218,c),
(78,182,ls),
(80,178,o),
(86,177,o),
(90,175,cs),
(112,165,o),
(121,149,o),
(125,125,cs),
(129,96,o),
(136,67,o),
(158,50,c),
(185,71,o),
(207,91,o),
(231,105,cs),
(255,119,o),
(282,109,o),
(285,85,cs),
(290,57,o),
(303,28,o),
(291,-2,c),
(290,-9,o),
(293,-16,o),
(299,-20,c)
);
},
{
closed = 1;
nodes = (
(124,214,o),
(120,231,o),
(142,237,cs),
(148,238,o),
(160,229,o),
(162,223,cs),
(166,207,o),
(152,197,o),
(128,197,c)
);
},
{
closed = 1;
nodes = (
(314,152,o),
(293,172,o),
(292,198,cs),
(292,224,o),
(312,245,o),
(338,246,cs),
(363,248,o),
(381,230,o),
(383,202,cs),
(384,177,o),
(365,155,o),
(340,153,cs)
);
},
{
closed = 1;
nodes = (
(284,312,o),
(277,319,o),
(274,327,c),
(276,335,o),
(282,342,o),
(290,345,c),
(297,345,o),
(305,336,o),
(319,327,c),
(306,318,o),
(298,310,o),
(292,310,c)
);
}
);
width = 455;
}
);
note = S;
unicode = (83,115);
},
{
glyphname = T;
lastChange = "2022-12-26 01:31:15 +0000";
layers = (
{
layerId = m01;
shapes = (
{
closed = 1;
nodes = (
(261,29,o),
(279,37,o),
(291,52,cs),
(320,86,o),
(347,122,o),
(370,160,cs),
(378,174,o),
(387,188,o),
(396,202,c),
(392,254,o),
(389,305,o),
(387,357,cs),
(386,373,o),
(385,389,o),
(385,404,c),
(375,415,o),
(367,429,o),
(364,444,cs),
(362,461,o),
(363,479,o),
(370,495,cs),
(382,528,o),
(414,532,o),
(445,537,c),
(430,586,l),
(430,585,l),
(408,618,o),
(413,653,o),
(424,687,cs),
(430,706,o),
(425,719,o),
(409,729,cs),
(377,750,o),
(345,770,o),
(314,791,cs),
(299,801,o),
(285,801,o),
(272,789,cs),
(236,752,l),
(241,762,o),
(247,771,o),
(254,779,c),
(256,785,o),
(257,791,o),
(257,798,c),
(251,797,o),
(244,799,o),
(241,797,cs),
(227,788,o),
(214,779,o),
(202,768,cs),
(182,748,o),
(184,738,o),
(211,724,c),
(179,688,o),
(146,654,o),
(117,616,cs),
(95,589,o),
(77,560,o),
(63,529,cs),
(52,506,o),
(44,484,o),
(22,470,cs),
(5,459,o),
(6,447,o),
(21,434,cs),
(34,422,o),
(44,423,o),
(59,432,cs),
(80,446,o),
(103,463,o),
(127,465,cs),
(161,469,o),
(192,445,o),
(228,449,cs),
(247,451,o),
(255,430,o),
(251,414,cs),
(248,403,o),
(248,385,o),
(235,381,c),
(257,327,o),
(276,266,o),
(295,207,cs),
(306,176,o),
(300,148,o),
(278,108,cs),
(264,83,o),
(252,57,o),
(242,30,c)
);
},
{
closed = 1;
nodes = (
(326,394,o),
(324,407,o),
(320,422,c),
(339,419,o),
(351,418,o),
(363,415,c),
(364,410,o),
(364,404,o),
(362,399,c),
(352,396,o),
(340,394,o),
(329,394,cs)
);
},
{
closed = 1;
nodes = (
(470,561,l),
(471,582,o),
(471,603,o),
(472,622,c),
(477,630,o),
(482,639,o),
(486,648,cs),
(487,650,o),
(477,659,o),
(474,658,cs),
(463,654,o),
(453,649,o),
(444,642,cs),
(440,638,o),
(441,628,o),
(439,621,cs),
(430,586,l),
(463,557,l)
);
},
{
closed = 1;
nodes = (
(524,581,o),
(530,584,o),
(537,585,cs),
(544,586,o),
(551,587,o),
(557,587,c),
(554,597,o),
(553,612,o),
(546,616,cs),
(533,624,o),
(517,625,o),
(502,629,c),
(500,614,o),
(498,601,o),
(498,588,cs),
(499,573,o),
(507,572,o),
(518,578,cs)
);
}
);
width = 527;
}
);
note = T;
unicode = (84,116);
},
{
glyphname = U;
kernLeft = U;
lastChange = "2022-12-26 01:31:17 +0000";
layers = (
{
layerId = m01;
shapes = (
{
closed = 1;
nodes = (
(289,9,o),
(305,17,o),
(321,21,c),
(320,36,o),
(319,44,o),
(318,55,c),
(335,68,l),
(335,53,ls),
(336,43,o),
(336,33,o),
(337,23,c),
(340,31,o),
(342,39,o),
(344,47,c),
(346,71,o),
(351,78,o),
(363,75,cs),
(372,73,o),
(383,84,o),
(391,94,cs),
(405,109,o),
(419,129,o),
(432,147,cs),
(437,154,o),
(441,161,o),
(444,168,c),
(453,205,o),
(472,222,o),
(489,213,cs),
(524,193,o),
(559,181,o),
(594,215,c),
(598,218,o),
(601,222,o),
(605,224,c),
(627,240,o),
(627,242,o),
(628,291,cs),
(628,313,ls),
(627,409,o),
(627,504,o),
(626,600,cs),
(626,631,o),
(627,662,o),
(626,692,cs),
(625,717,o),
(613,743,o),
(602,745,cs),
(593,747,o),
(583,746,o),
(574,742,c),
(552,729,o),
(530,716,o),
(520,665,cs),
(510,616,o),
(502,565,o),
(489,520,cs),
(464,424,o),
(444,318,o),
(396,257,cs),
(369,222,o),
(332,220,o),
(309,269,cs),
(297,296,o),
(285,324,o),
(274,351,cs),
(267,367,o),
(261,374,o),
(250,358,cs),
(243,347,o),
(232,338,o),
(223,341,cs),
(209,346,o),
(205,337,o),
(202,310,cs),
(201,303,o),
(200,296,o),
(198,290,c),
(203,284,o),
(205,277,o),
(195,265,cs),
(191,260,o),
(197,243,o),
(202,234,cs),
(214,213,o),
(228,193,o),
(239,172,cs),
(242,167,o),
(236,157,o),
(234,150,c),
(228,156,o),
(220,161,o),
(216,168,cs),
(205,193,o),
(195,218,o),
(184,244,cs),
(183,246,o),
(179,246,o),
(178,247,c),
(183,211,o),
(190,176,o),
(193,140,cs),
(194,130,o),
(186,117,o),
(179,108,cs),
(151,72,o),
(107,59,o),
(68,40,cs),
(59,36,o),
(50,30,o),
(44,22,c),
(56,29,o),
(70,34,o),
(84,38,cs),
(109,45,o),
(135,47,o),
(160,43,cs),
(198,37,o),
(236,20,o),
(274,12,cs)
);
},
{
closed = 1;
nodes = (
(148,331,o),
(152,335,o),
(155,338,cs),
(182,368,l),
(189,374,o),
(196,382,o),
(202,389,c),
(210,402,o),
(216,420,o),
(224,430,cs),
(234,441,o),
(239,457,o),
(238,479,cs),
(239,505,o),
(238,531,o),
(236,557,cs),
(234,573,o),
(228,593,o),
(221,598,cs),
(179,632,o),
(137,642,o),
(94,602,cs),
(68,577,o),
(41,553,o),
(13,530,c),
(22,528,o),
(32,526,o),
(42,523,cs),
(66,515,o),
(90,505,o),
(113,494,c),
(119,501,o),
(124,510,o),
(132,514,cs),
(140,518,o),
(150,516,o),
(160,517,c),
(160,489,ls),
(160,487,o),
(156,484,o),
(154,482,cs),
(143,467,o),
(141,455,o),
(158,442,cs),
(179,427,o),
(187,396,o),
(178,376,cs),
(175,371,o),
(170,368,o),
(165,364,c),
(156,377,ls),
(148,392,o),
(140,407,o),
(133,422,c),
(126,420,l),
(126,413,o),
(127,406,o),
(128,399,cs),
(134,375,o),
(139,351,o),
(145,327,c)
);
}
);
width = 655;
}
);
note = U;
unicode = (85,117,217,218,219,220,249,250,251,252);
},
{
glyphname = V;
lastChange = "2022-12-26 01:31:18 +0000";
layers = (
{
layerId = m01;
shapes = (
{
closed = 1;
nodes = (
(32,102,o),
(50,117,o),
(66,132,cs),
(111,177,o),
(159,175,o),
(218,168,cs),
(220,168,ls),
(223,168,o),
(226,167,o),
(229,167,cs),
(280,161,o),
(332,156,o),
(384,151,c),
(437,224,o),
(479,304,o),
(501,396,cs),
(502,399,o),
(503,403,o),
(503,406,c),
(485,428,o),
(468,448,o),
(463,478,cs),
(460,503,o),
(444,508,o),
(422,497,cs),
(402,489,o),
(397,477,o),
(401,455,cs),
(405,423,o),
(412,388,o),
(403,360,cs),
(389,320,o),
(346,297,o),
(331,253,cs),
(324,231,o),
(296,232,o),
(280,246,cs),
(266,258,o),
(234,270,o),
(261,300,cs),
(266,306,o),
(266,324,o),
(261,331,cs),
(233,369,o),
(235,409,o),
(247,452,c),
(248,460,o),
(248,470,o),
(246,478,c),
(246,490,o),
(241,503,o),
(245,514,cs),
(266,580,o),
(244,635,o),
(197,678,cs),
(182,692,o),
(155,699,o),
(134,698,cs),
(105,696,o),
(77,686,o),
(54,667,c),
(62,650,o),
(72,632,o),
(83,615,cs),
(120,556,o),
(78,440,o),
(56,353,cs),
(35,271,o),
(19,187,o),
(9,102,c),
(10,98,o),
(12,94,o),
(13,90,c)
);
}
);
width = 505;
}
);
note = V;
unicode = (86,118);
},
{
glyphname = W;
lastChange = "2022-12-26 01:31:20 +0000";
layers = (
{
layerId = m01;
shapes = (
{
closed = 1;
nodes = (
(497,119,o),
(510,127,o),
(521,138,cs),
(539,158,o),
(558,178,o),
(564,212,c),
(561,234,l),
(575,227,o),
(591,224,o),
(608,226,c),
(630,231,o),
(656,224,o),
(672,253,cs),
(685,280,o),
(700,305,o),
(716,330,cs),
(736,358,o),
(724,391,o),
(729,421,c),
(729,424,o),
(726,428,o),
(724,431,cs),
(712,450,o),
(700,468,o),
(686,485,cs),
(682,491,o),
(667,493,o),
(664,489,cs),
(637,455,o),
(599,434,o),
(585,384,cs),
(580,367,o),
(565,353,o),
(555,337,c),
(547,346,l),
(547,345,o),
(547,345,o),
(546,345,c),
(540,397,o),
(533,449,o),
(525,501,cs),
(521,529,o),
(484,562,o),
(460,562,cs),
(452,562,o),
(444,561,o),
(437,557,c),
(442,587,o),
(450,600,o),
(478,612,cs),
(487,617,o),
(495,626,o),
(498,637,cs),
(499,643,o),
(489,655,o),
(483,661,c),
(443,692,o),
(402,678,o),
(361,664,cs),
(349,661,o),
(331,660,o),
(326,650,cs),
(308,617,o),
(291,581,o),
(297,539,cs),
(303,493,o),
(288,460,o),
(257,436,c),
(251,433,o),
(247,428,o),
(243,422,c),
(180,287,l),
(178,289,l),
(167,265,o),
(157,242,o),
(145,219,cs),
(135,199,o),
(134,181,o),
(151,169,cs),
(172,153,o),
(195,140,o),
(219,130,cs),
(238,123,o),
(252,131,o),
(263,157,cs),
(297,233,o),
(334,308,o),
(384,372,c),
(388,376,o),
(392,381,o),
(396,386,c),
(398,315,o),
(400,245,o),
(404,174,cs),
(407,122,o),
(442,97,o),
(483,114,cs)
);
},
{
closed = 1;
nodes = (
(82,184,o),
(89,187,o),
(95,192,cs),
(100,197,o),
(103,205,o),
(102,212,c),
(103,231,o),
(86,249,o),
(70,249,cs),
(51,248,o),
(43,238,o),
(43,228,cs),
(42,201,o),
(56,185,o),
(75,185,c)
);
},
{
closed = 1;
nodes = (
(163,255,o),
(175,272,o),
(176,315,c),
(173,337,o),
(172,361,o),
(168,383,cs),
(155,445,o),
(142,508,o),
(128,570,cs),
(125,582,o),
(122,595,o),
(117,606,cs),
(110,627,o),
(99,648,o),
(79,643,cs),
(57,636,o),
(42,615,o),
(43,592,cs),
(42,563,o),
(43,535,o),
(45,506,cs),
(47,449,o),
(49,391,o),
(53,333,cs),
(54,318,o),
(58,298,o),
(67,291,cs),
(85,277,o),
(106,267,o),
(128,262,cs)
);
}
);
width = 732;
}
);
note = W;
unicode = (87,119);
},
{
glyphname = X;
lastChange = "2022-12-26 01:31:21 +0000";
layers = (
{
layerId = m01;
shapes = (
{
closed = 1;
nodes = (
(433,171,o),
(444,188,o),
(441,222,cs),
(440,232,o),
(438,246,o),
(443,254,cs),
(448,262,o),
(461,264,o),
(470,269,c),
(472,261,o),
(474,253,o),
(476,244,c),
(479,214,l),
(490,217,o),
(503,217,o),
(512,223,cs),
(535,238,o),
(556,256,o),
(578,273,c),
(567,298,o),
(558,323,o),
(551,349,c),
(542,342,o),
(532,334,o),
(522,327,cs),
(518,324,o),
(512,323,o),
(507,323,c),
(469,331,o),
(429,339,o),
(397,365,c),
(398,378,o),
(395,394,o),
(402,410,cs),
(412,434,o),
(441,447,o),
(466,444,cs),
(494,441,o),
(521,440,o),
(549,438,c),
(553,466,o),
(540,489,o),
(512,500,cs),
(483,512,o),
(454,522,o),
(432,530,c),
(427,546,o),
(427,559,o),
(421,562,cs),
(411,567,o),
(399,568,o),
(388,568,cs),
(380,568,o),
(372,562,o),
(366,564,cs),
(363,565,o),
(361,567,o),
(358,568,c),
(362,528,o),
(358,488,o),
(344,451,cs),
(342,444,o),
(333,440,o),
(327,434,c),
(322,439,o),
(317,445,o),
(313,451,c),
(277,534,o),
(229,604,o),
(129,617,c),
(107,607,o),
(85,598,o),
(62,590,cs),
(43,584,o),
(32,577,o),
(31,558,cs),
(29,521,o),
(24,483,o),
(23,446,c),
(66,424,o),
(113,412,o),
(161,410,cs),
(245,410,l),
(241,388,o),
(233,365,o),
(203,360,cs),
(159,353,o),
(115,347,o),
(70,342,c),
(61,342,o),
(52,341,o),
(43,340,c),
(57,312,o),
(76,285,o),
(86,256,cs),
(87,252,o),
(93,250,o),
(96,247,c),
(138,216,o),
(186,194,o),
(237,184,c),
(264,216,o),
(296,245,o),
(331,269,c),
(409,278,o),
(406,236,o),
(334,172,c),
(356,171,o),
(378,171,o),
(399,171,cs)
);
}
);
width = 589;
}
);
note = X;
unicode = (88,120);
},
{
glyphname = Y;
lastChange = "2022-12-26 01:31:23 +0000";
layers = (
{
layerId = m01;
shapes = (
{
closed = 1;
nodes = (
(218,-187,o),
(255,-187,o),
(267,-172,cs),
(299,-135,o),
(334,-96,o),
(327,-39,cs),
(323,-13,o),
(326,13,o),
(326,39,c),
(325,39,l),
(327,86,o),
(330,132,o),
(332,179,c),
(333,185,o),
(333,192,o),
(331,199,c),
(305,252,o),
(319,288,o),
(372,315,cs),
(395,327,o),
(413,350,o),
(433,368,cs),
(476,407,o),
(530,417,o),
(584,427,cs),
(643,439,o),
(674,480,o),
(665,538,cs),
(660,577,o),
(627,591,o),
(595,598,cs),
(552,606,o),
(508,611,o),
(465,612,cs),
(425,612,o),
(405,584,o),
(396,548,cs),
(390,524,o),
(389,494,o),
(354,496,cs),
(323,499,o),
(315,525,o),
(310,552,cs),
(298,613,o),
(227,638,o),
(162,606,cs),
(82,565,o),
(92,484,o),
(141,436,cs),
(173,405,o),
(208,377,o),
(236,343,c),
(248,325,o),
(252,304,o),
(247,283,cs),
(243,270,o),
(220,257,o),
(203,254,cs),
(184,250,o),
(162,254,o),
(142,258,cs),
(105,265,o),
(67,255,o),
(38,230,cs),
(9,206,o),
(-7,170,o),
(-7,132,cs),
(-7,100,o),
(-14,67,o),
(-11,35,cs),
(-9,5,o),
(1,-25,o),
(9,-55,c),
(10,-62,o),
(18,-68,o),
(17,-74,c),
(15,-122,o),
(47,-147,o),
(84,-161,cs),
(119,-174,o),
(156,-182,o),
(193,-185,cs)
);
}
);
width = 651;
}
);
note = Y;
unicode = (89,121,221,253,255,376);
},
{
glyphname = Z;
lastChange = "2022-12-26 01:31:24 +0000";
layers = (
{
layerId = m01;
shapes = (
{
closed = 1;
nodes = (
(658,201,o),
(667,209,o),
(675,222,cs),
(697,262,o),
(713,301,o),
(710,346,c),
(697,342,o),
(682,344,o),
(670,351,cs),
(634,371,o),
(599,367,o),
(564,352,cs),
(535,339,o),
(501,352,o),
(488,381,cs),
(481,396,o),
(466,414,o),
(470,428,cs),
(473,442,o),
(495,451,o),
(507,463,cs),
(520,476,o),
(533,475,o),
(550,473,cs),
(573,470,o),
(596,468,o),
(620,466,c),
(595,507,o),
(591,558,o),
(608,602,cs),
(614,618,o),
(605,621,o),
(592,620,cs),
(572,618,o),
(551,615,o),
(531,615,cs),
(410,616,o),
(289,618,o),
(168,617,cs),
(130,617,o),
(91,610,o),
(57,607,c),
(49,594,o),
(43,580,o),
(38,567,c),
(29,533,o),
(26,498,o),
(29,463,cs),
(29,462,o),
(30,461,o),
(30,459,c),
(86,474,l),
(98,476,o),
(109,480,o),
(120,484,cs),
(197,519,o),
(275,494,o),
(352,488,cs),
(353,488,o),
(354,486,o),
(360,481,c),
(349,473,o),
(340,463,o),
(329,459,cs),
(307,452,o),
(292,441,o),
(287,416,cs),
(285,397,o),
(268,383,o),
(250,384,cs),
(178,385,o),
(106,388,o),
(34,389,c),
(34,373,o),
(35,358,o),
(37,342,cs),
(42,319,o),
(49,298,o),
(60,277,cs),
(62,273,o),
(73,270,o),
(80,271,cs),
(113,277,o),
(147,265,o),
(170,239,c),
(177,233,o),
(186,229,o),
(195,228,cs),
(241,222,o),
(286,215,o),
(332,213,cs),
(396,210,o),
(460,211,o),
(523,211,cs),
(535,211,o),
(547,217,o),
(558,216,cs),
(586,214,o),
(613,210,o),
(641,204,cs)
);
},
{
closed = 1;
nodes = (
(564,235,o),
(564,245,o),
(569,250,cs),
(583,267,o),
(597,287,o),
(616,296,cs),
(632,305,o),
(655,301,o),
(675,303,c),
(675,301,o),
(676,299,o),
(677,297,c),
(651,255,l),
(656,243,o),
(665,231,o),
(663,227,cs),
(654,212,o),
(631,213,o),
(619,224,c),
(610,230,o),
(601,235,o),
(592,240,c),
(588,235,l),
(596,224,l),
(560,224,l)
);
},
{
closed = 1;
nodes = (
(528,583,o),
(526,589,o),
(528,594,cs),
(530,599,o),
(537,605,o),
(541,604,cs),
(554,602,o),
(567,599,o),
(579,595,c),
(571,572,o),
(549,565,o),
(531,579,c)
);
}
);
width = 717;
}
);
note = Z;
unicode = (90,122);
},
